<?xml version="1.0" encoding="UTF-8"?>
<svg version="1.1" xmlns="http://www.w3.org/2000/svg" width="80" height="80">
<path d="M0 0 C26.4 0 52.8 0 80 0 C80 26.4 80 52.8 80 80 C53.6 80 27.2 80 0 80 C0 53.6 0 27.2 0 0 Z " fill="#4B0107" transform="translate(0,0)"/>
<path d="M0 0 C13.53 0 27.06 0 41 0 C41 0.99 41 1.98 41 3 C41.66 3 42.32 3 43 3 C43 13.89 43 24.78 43 36 C42.34 36 41.68 36 41 36 C41 36.66 41 37.32 41 38 C40.01 38 39.02 38 38 38 C38 40.31 38 42.62 38 45 C38.99 45 39.98 45 41 45 C41 45.99 41 46.98 41 48 C41.66 48 42.32 48 43 48 C43 48.66 43 49.32 43 50 C42.34 50 41.68 50 41 50 C41 50.99 41 51.98 41 53 C27.47 53 13.94 53 0 53 C0 52.34 0 51.68 0 51 C-0.66 51 -1.32 51 -2 51 C-2 50.01 -2 49.02 -2 48 C-2.66 48 -3.32 48 -4 48 C-4 33.81 -4 19.62 -4 5 C-3.34 5 -2.68 5 -2 5 C-2 4.34 -2 3.68 -2 3 C-1.34 3 -0.68 3 0 3 C0 2.01 0 1.02 0 0 Z " fill="#F1E5E7" transform="translate(20,13)"/>
<path d="M0 0 C12.87 0 25.74 0 39 0 C39 9.57 39 19.14 39 29 C26.13 29 13.26 29 0 29 C0 19.43 0 9.86 0 0 Z " fill="#581117" transform="translate(20,18)"/>
<path d="M0 0 C2.31 0 4.62 0 7 0 C7 0.66 7 1.32 7 2 C7.99 2 8.98 2 10 2 C10 2.66 10 3.32 10 4 C10.66 4 11.32 4 12 4 C12 3.34 12 2.68 12 2 C12.66 2 13.32 2 14 2 C14 1.34 14 0.68 14 0 C16.31 0 18.62 0 21 0 C21 0.66 21 1.32 21 2 C21.99 2 22.98 2 24 2 C24 4.64 24 7.28 24 10 C23.34 10 22.68 10 22 10 C22 10.66 22 11.32 22 12 C21.01 12 20.02 12 19 12 C19 12.66 19 13.32 19 14 C18.34 14 17.68 14 17 14 C17 14.99 17 15.98 17 17 C16.01 17 15.02 17 14 17 C14 17.66 14 18.32 14 19 C13.34 19 12.68 19 12 19 C12 19.66 12 20.32 12 21 C11.01 21 10.02 21 9 21 C9 20.34 9 19.68 9 19 C8.34 19 7.68 19 7 19 C7 18.34 7 17.68 7 17 C6.34 17 5.68 17 5 17 C5 16.01 5 15.02 5 14 C4.01 14 3.02 14 2 14 C2 13.34 2 12.68 2 12 C1.34 12 0.68 12 0 12 C0 11.01 0 10.02 0 9 C-0.66 9 -1.32 9 -2 9 C-2 6.69 -2 4.38 -2 2 C-1.34 2 -0.68 2 0 2 C0 1.34 0 0.68 0 0 Z " fill="#F0E4E6" transform="translate(30,23)"/>
<path d="M0 0 C10.23 0 20.46 0 31 0 C31 3.3 31 6.6 31 10 C20.77 10 10.54 10 0 10 C0 9.01 0 8.02 0 7 C-0.66 7 -1.32 7 -2 7 C-2 5.68 -2 4.36 -2 3 C-1.34 3 -0.68 3 0 3 C0 2.01 0 1.02 0 0 Z " fill="#550D13" transform="translate(23,51)"/>
</svg>
